<svg width="189" height="66" viewBox="0 0 189 66" fill="none" xmlns="http://www.w3.org/2000/svg">
<path fill-rule="evenodd" clip-rule="evenodd" d="M30.388 0.872072C30.0954 1.13494 29.776 1.76796 29.6809 2.28027C29.5078 3.21371 29.5053 3.21371 21.7632 7.0333L14.0187 10.8529L13.297 10.2655C11.056 8.4415 8.21036 11.5181 9.92215 13.9134C10.227 14.3399 10.3708 14.8146 10.2782 15.0882C10.1928 15.343 8.79558 19.1412 7.17401 23.5294C4.75751 30.0635 4.10401 31.5092 3.72361 31.5092C3.46757 31.5092 3.02622 31.8043 2.69703 32.1664C1.48024 33.5048 2.21909 35.5326 3.92844 35.5326C5.47441 35.5326 6.2791 33.7489 5.37688 32.3327C5.00867 31.756 5.11108 31.41 7.60805 24.5916C9.40519 19.683 10.2489 17.3467 10.7756 16.2121C11.3023 15.0775 11.5144 15.1472 12.0436 15.0534C13.214 14.8468 14.2284 13.7149 14.3357 12.4998L14.4333 11.612L21.9559 7.88895C26.0939 5.84236 29.6053 4.15788 29.7589 4.16325C29.9125 4.16861 30.2344 4.34564 30.4929 4.56022C30.7538 4.77749 31.161 4.95452 31.4 4.95452C31.639 4.95452 32.1998 4.7614 32.6485 4.52804C33.4629 4.10155 33.4702 4.1391 37.4595 6.12668C39.6566 7.22105 41.5073 8.184 41.5439 8.3208C41.5829 8.4576 40.549 9.25155 39.2762 10.1367L36.9621 11.7944L33.3678 11.8265C30.4392 11.8534 29.437 11.9687 27.9447 12.4488C26.9401 12.7734 25.4307 13.4011 24.5894 13.841C23.7506 14.2808 22.268 15.3001 21.2975 16.1021C20.327 16.9068 18.9834 18.2775 18.3128 19.1519C17.6423 20.0236 16.723 21.4131 16.2694 22.2392C15.8159 23.0627 15.177 24.5513 14.8454 25.5465C14.5162 26.5416 14.0919 28.2395 13.9017 29.3231C13.7115 30.4068 13.5579 32.0027 13.5579 32.8745C13.5579 34.398 13.4798 34.4785 12.3045 35.9055C10.7463 37.7965 6.62049 43.7673 5.21351 46.1036C4.15766 47.8578 2.87016 50.2718 2.35565 51.4681C0.673117 55.3601 -0.0120868 59.2736 0.648732 61.2022C0.790162 61.6179 1.19982 62.2939 1.55583 62.7043C2.97989 64.3458 5.90358 64.5443 9.97335 63.2783C11.156 62.9108 13.2701 62.0551 14.6747 61.3792C16.0792 60.7033 18.5957 59.3326 20.2343 58.3026C21.873 57.2726 24.2846 55.615 25.6257 54.652C27.1498 53.5603 35.8745 46.4335 37.2449 45.1621C38.0106 44.4513 38.2081 44.3815 38.6641 44.6498C38.9543 44.8214 39.7565 45.0602 40.4442 45.1782C41.8438 45.4223 43.3313 44.8482 44.3311 43.6788C44.692 43.255 45.1601 42.461 45.3674 41.9138C45.5747 41.3666 45.7454 40.5673 45.7454 40.1435C45.7454 39.717 45.621 38.9767 45.4698 38.4993L45.1943 37.6275L48.3716 34.1003C50.1175 32.161 52.5364 29.3339 53.7435 27.8184C54.9505 26.3029 56.8744 23.7681 58.0229 22.1078C63.6436 13.9992 66.1283 6.74361 64.4678 3.35319C63.2437 0.853296 60.1249 0.182728 55.7454 1.48096C54.6067 1.81893 52.7388 2.50559 51.6001 3.00986C50.4613 3.51413 48.0448 4.76139 46.2331 5.78335C44.4213 6.8053 42.8119 7.6395 42.6583 7.6395C42.5022 7.6395 40.3905 6.65241 37.9667 5.44538C34.0311 3.48731 33.5556 3.18152 33.5556 2.60751C33.5556 1.76528 32.3559 0.399994 31.5829 0.399994C31.2512 0.399994 30.6855 0.609207 30.3929 0.872072H30.388ZM61.1588 3.35856C61.6587 3.51145 62.2341 3.90038 62.439 4.22226C62.9584 5.03768 62.9096 7.51343 62.339 9.33471C62.0781 10.1662 61.4002 11.8319 60.832 13.0363C60.2639 14.2406 58.991 16.4911 58.0059 18.0387C57.0207 19.5864 55.2992 22.0756 54.1824 23.5669C52.7193 25.5223 45.7819 33.6792 44.7066 34.7119L43.7922 35.5917L42.8119 35.1598C39.2103 33.5746 35.4381 37.2413 36.4403 41.3559C36.7231 42.5173 36.7085 42.6515 36.2671 43.0323C36.0013 43.2603 34.6529 44.4298 33.2678 45.6288C30.5709 47.9651 24.7601 52.4767 22.1315 54.2711C20.427 55.4353 17.7179 57.1144 16.1109 57.9995C14.504 58.8847 12.2582 59.9683 11.1194 60.4082C9.98067 60.8481 8.30058 61.3577 7.3886 61.5455C3.36028 62.369 1.79968 60.8427 2.68971 56.9561C3.35053 54.07 6.35958 48.0053 9.12234 43.9819C10.5903 41.8468 13.692 37.6785 13.8139 37.6785C13.9114 37.6785 14.0675 38.1318 14.1602 38.6843C14.2528 39.2369 14.6576 40.5619 15.06 41.6268C15.4623 42.6917 16.2231 44.2984 16.7498 45.1969C17.2789 46.0955 18.2104 47.4206 18.8225 48.1394C19.4345 48.8583 20.5221 49.9446 21.2365 50.5535L22.5387 51.6586L23.4092 51.039C23.8871 50.6983 24.2529 50.3389 24.2212 50.2423C24.1895 50.1458 23.5019 49.5315 22.6923 48.877C21.8827 48.2226 20.7074 47.0289 20.0807 46.2216C15.9402 40.8919 14.6235 33.5531 16.6279 26.9788C16.9693 25.8549 17.5667 24.3341 17.952 23.5964C18.3372 22.8588 19.1078 21.6518 19.6637 20.9142C20.2197 20.1765 21.2146 19.0822 21.8754 18.4813C22.5362 17.8805 23.9408 16.8827 24.9966 16.2657C29.7443 13.4815 36.1062 13.3179 40.7051 15.858C41.3976 16.2416 42.6315 17.0758 43.4508 17.7115C44.2677 18.3499 45.504 19.5515 46.1965 20.3857C47.1328 21.5123 49.403 25.3641 49.403 25.8254C49.403 26.0025 49.4689 26.1339 49.5689 26.1232C49.6688 26.1124 50.0663 25.7101 50.4321 25.2246L51.0953 24.3448L50.4467 22.9607C48.769 19.3799 44.5383 15.0507 41.2976 13.6022C40.393 13.1972 39.6541 12.8056 39.6541 12.7332C39.6541 12.6607 40.6636 11.9473 41.9219 11.097L44.2238 9.50905L46.8378 10.8529C48.2765 11.5905 49.4957 12.1967 49.5493 12.1967C49.603 12.1967 49.6469 12.0089 49.6469 11.7783C49.6469 11.5127 48.8349 10.9441 47.4181 10.2252C45.1992 9.0933 45.1918 9.08794 45.7795 8.66413C46.6208 8.05794 51.5172 5.50976 53.0583 4.87674C54.7481 4.18203 58.5887 3.12788 59.5202 3.10106C59.9225 3.09033 60.6589 3.20567 61.1588 3.35856ZM42.6559 37.6946C44.831 39.5749 43.2484 43.4964 40.5417 42.9358C38.5105 42.5173 37.6766 39.5373 39.1396 37.9253C40.0394 36.9355 41.6585 36.8282 42.6559 37.6919V37.6946ZM52.5023 15.3162C52.4048 15.4235 54.1604 19.6374 54.4433 19.97C54.5018 20.0397 54.6457 19.9271 54.7603 19.7205C54.9017 19.4711 54.6847 18.653 54.0458 17.2528C53.5191 16.0994 52.9656 15.1472 52.8559 15.1472C52.7461 15.1472 52.5876 15.2223 52.5047 15.3135L52.5023 15.3162ZM24.5528 20.7157C19.7076 23.862 17.3716 30.844 19.0566 37.1447C19.2736 37.9548 19.5491 38.7326 19.6686 38.8694C19.8027 39.0223 19.8271 38.2766 19.732 36.9382C19.3321 31.2356 21.5706 24.9188 25.3136 21.1958C26.1329 20.3804 26.6475 19.7098 26.4524 19.7098C26.2597 19.7098 25.4038 20.1631 24.5528 20.7157ZM85.7335 7.54294C84.7752 7.65828 82.4903 8.3664 81.71 8.78752C81.1736 9.0772 80.2689 9.729 79.6983 10.2386C79.1277 10.7456 78.3279 11.7005 77.9158 12.3576C76.6503 14.3801 76.1748 16.416 76.2918 19.3102C76.4089 22.2553 77.0623 24.2295 78.5327 26.0856C79.0302 26.7133 79.9031 27.5823 80.4737 28.0115C82.1465 29.2775 84.4557 29.983 86.9551 29.9884C89.969 29.9964 91.6199 29.4546 93.5755 27.8184C94.4095 27.121 95.1264 26.4263 95.1703 26.2761C95.2141 26.1259 94.5826 25.356 93.7657 24.5674L92.2831 23.1324L91.6296 23.8191C91.2712 24.1973 90.4811 24.7525 89.8788 25.0529C88.5767 25.7021 85.8822 25.7986 84.6727 25.2434C84.2314 25.0395 83.4608 24.4789 82.9585 23.9934C80.5542 21.6706 80.2006 17.116 82.2002 14.2299C82.5562 13.7176 83.4072 12.9907 84.0924 12.6151C86.365 11.3679 89.8325 11.8561 91.5662 13.68L92.2222 14.4123L93.7316 12.9102C94.5606 12.0841 95.18 11.2338 95.102 11.0916C95.0215 10.9494 94.4119 10.3593 93.7438 9.77997C92.4685 8.67218 90.1154 7.7602 88.05 7.57244C87.2453 7.50002 86.2016 7.48661 85.7335 7.54294ZM105.626 7.67437C99.9984 8.55416 95.9628 14.5035 96.904 20.5359C97.0625 21.5579 97.4283 22.942 97.7111 23.6072C97.9964 24.2751 98.7304 25.4338 99.3424 26.1822C99.9545 26.9305 100.847 27.813 101.325 28.1429C101.803 28.4729 102.798 28.9879 103.534 29.2856C107.501 30.8896 112.388 29.9428 115.265 27.0137C118.618 23.5991 119.547 18.1326 117.523 13.7363C116.719 11.9875 114.77 9.80142 113.285 8.97796C112.542 8.56488 111.498 8.10622 110.964 7.95869C109.72 7.61536 106.941 7.46515 105.626 7.67168V7.67437ZM110.984 12.878C112.79 14.1065 113.632 15.7829 113.739 18.3713C113.844 20.9088 113.212 22.7676 111.793 24.1061C110.042 25.7557 106.975 26.1098 104.795 24.9135C102.754 23.7949 101.525 21.4855 101.525 18.771C101.525 16.0565 102.751 13.7551 104.809 12.6125C106.658 11.5851 109.25 11.6951 110.986 12.878H110.984ZM127.363 7.66364C126.587 7.7897 125.49 8.11694 124.924 8.39322C124.358 8.6695 123.551 9.24351 123.11 9.6539C121.603 11.0567 120.742 14.1092 121.327 16.0565C121.488 16.5957 121.922 17.3521 122.264 17.7973C122.605 18.2426 123.356 19.0017 123.995 19.3584C124.636 19.7152 126.38 20.2811 127.836 20.6781C129.291 21.0724 130.896 21.625 131.406 21.9039C132.537 22.5262 132.983 23.4704 132.593 24.4146C131.774 26.3941 126.526 26.3029 123.522 24.267L122.342 23.5026L121.588 25.2756C121.174 26.2519 120.889 27.2015 120.952 27.3892C121.018 27.577 121.603 28.0276 122.252 28.387C125.2 30.0313 129.938 30.5141 132.895 29.476C134.902 28.7706 136.573 27.0861 137.063 25.2675C137.265 24.5138 137.409 23.465 137.409 23.0037C137.409 21.067 135.653 18.6503 133.676 17.8322C133.286 17.6713 131.647 17.1804 130.033 16.7405C128.418 16.3006 126.846 15.7615 126.538 15.5388C125.917 15.0909 125.565 13.8758 125.895 13.3045C126.565 12.135 127.472 11.789 129.833 11.8078C131.852 11.8239 132.398 11.9312 133.629 12.5481C134.422 12.9451 135.09 13.2401 135.114 13.1999C135.139 13.1623 135.466 12.3389 135.831 11.3196C136.358 9.8497 136.478 9.38031 136.224 9.20059C135.149 8.4415 130.915 7.32835 129.387 7.39809C129.05 7.41419 128.143 7.52684 127.368 7.6529L127.363 7.66364ZM175.956 7.66364C175.217 7.78166 174.12 8.06866 173.518 8.30202C172.915 8.53538 171.862 9.14695 171.179 9.66195C170.496 10.1769 169.584 11.0809 169.15 11.6737C168.719 12.2665 168.07 13.4413 167.712 14.2862C167.129 15.6595 167.058 16.1343 167.058 18.7737C167.058 21.5365 167.107 21.8395 167.836 23.5321C169.84 28.1859 174.615 30.7716 179.641 29.9213C183.352 29.2936 186.068 27.1988 187.604 23.7762C188.49 21.8047 188.514 21.6652 188.514 18.7844C188.514 16.0082 188.465 15.7078 187.736 14.0126C186.856 11.9687 185.017 9.8202 183.362 8.89749C182.706 8.5327 181.73 8.11158 181.196 7.96405C179.987 7.62876 177.178 7.47051 175.958 7.66632L175.956 7.66364ZM180.072 12.2557C180.526 12.4086 181.328 12.9612 181.857 13.4869C183.33 14.9514 183.871 16.3704 183.871 18.771C183.871 21.0349 183.332 22.5289 182.011 23.921C181.562 24.3931 180.789 24.9671 180.289 25.1951C178.948 25.812 176.349 25.7396 175.056 25.0503C172.154 23.5053 170.723 18.8273 172.181 15.6488C172.408 15.1526 172.94 14.3452 173.359 13.8517C173.781 13.3608 174.434 12.7788 174.812 12.5588C176.097 11.8185 178.372 11.6871 180.067 12.253L180.072 12.2557ZM140.599 18.771V29.6343H142.788H144.978L145.044 23.2987L145.088 16.9766L148.011 22.2392L150.957 27.4885H152.096H153.235L156 22.2607C157.521 19.3853 158.848 17.0302 158.948 17.0302C159.048 17.0302 159.131 19.8654 159.131 23.3309V29.6343H161.325H163.52V18.7603V7.88627L161.398 7.96405L159.277 8.04184L158.046 10.3674C157.368 11.6468 155.78 14.6295 154.52 16.9953C153.257 19.3611 152.208 21.2843 152.123 21.228C152.04 21.1717 150.325 18.1541 148.326 14.5276L144.646 7.90773H142.622H140.599V18.771ZM57.3548 26.0588C57.2768 26.1983 57.9912 28.1349 58.952 30.3022C60.6784 34.1995 60.693 34.2505 60.2931 34.9962C59.9006 35.7285 59.8006 37.5363 60.12 38.1908C60.2956 38.5529 60.1883 38.8855 59.6738 39.5802C59.3153 40.063 45.6893 59.743 45.6259 59.8718C45.6088 59.9066 45.304 59.7993 44.9017 59.6706C44.197 59.448 43.2338 59.7752 42.2998 60.5209C41.9755 60.7811 41.6024 60.6979 40.3491 60.0944C39.4956 59.684 36.7694 58.3831 34.2871 57.2029C31.8048 56.0254 29.6784 54.9873 29.5443 54.8425C29.3761 54.6628 29.5931 54.6037 30.2637 54.7539C30.8001 54.8746 32.3461 54.9551 33.697 54.9363C39.4469 54.8559 45.204 51.6505 48.6422 46.6105C49.3274 45.6073 50.2784 43.9068 50.7564 42.8285C51.2343 41.7529 51.8415 39.9477 52.1024 38.8185C52.4999 37.1045 52.9705 32.3112 52.7413 32.3112C52.6584 32.3112 52.1512 32.8235 51.6147 33.4512C51.0002 34.1674 50.6344 34.8487 50.6296 35.2859C50.6223 36.2542 49.5128 40.4573 48.9154 41.7904C48.5081 42.6997 47.6254 44.2501 46.9524 45.2372C46.0209 46.6051 42.9021 49.7461 42.4754 49.7461C42.3901 49.7461 41.9121 50.0412 41.4122 50.4006C39.8297 51.5406 36.7353 52.4633 33.9482 52.6269C31.2732 52.7825 31.239 52.7932 29.8467 53.8795C29.0761 54.483 28.4421 55.0517 28.4373 55.1456C28.4348 55.2394 31.4488 56.7469 35.1357 58.4984C41.1294 61.3443 41.8414 61.7494 41.8414 62.2992C41.8439 64.1017 43.4069 65.3275 45.0236 64.7938C46.2282 64.3968 46.8354 63.2702 46.6159 61.8459C46.533 61.3121 46.4476 60.6952 46.4233 60.4726C46.4013 60.2526 48.9422 56.3875 52.0683 51.8893C55.1968 47.3911 58.4277 42.7105 59.2471 41.49C60.6809 39.3576 60.7711 39.2771 61.5636 39.4005C63.5436 39.7117 65.1042 37.8797 64.519 35.9296C64.3702 35.4388 64.0849 34.8835 63.8825 34.7011C63.6802 34.5161 63.0071 34.1996 62.3951 34.0306L61.2929 33.7462L59.6153 29.8784C58.6935 27.7513 57.8376 25.973 57.7133 25.9274C57.5914 25.8818 57.4304 25.9139 57.3524 26.0534L57.3548 26.0588ZM77.6866 46.9351L77.6573 57.5811H78.6327L79.6373 57.5301V46.9351V36.34H78.662H77.6866V46.9351ZM83.0244 37.2413L83.0512 38.2176H86.465H89.8788V47.8739L89.9081 57.565H90.8835C91.6394 57.565 91.8345 57.4228 91.854 57.0607C91.8686 56.8032 91.9003 54.5984 91.9247 52.1655C91.9491 49.7327 91.993 45.5966 92.0222 42.9787L92.0734 38.2176H95.4873H98.9011V37.2788V36.34H90.9761L83.0244 36.3025V37.2413Z" fill="white" stroke="white" stroke-width="0.8" stroke-linejoin="round"/>
</svg>
